Coordinates
version=1
nRows=32
nColumns=38
inDegrees=no

Units are S.I. units (second, meters, Newtons, ...)
If the header above contains a line with 'inDegrees', this indicates whether rotational values are in degrees (yes) or radians (no).

endheader
time	pelvis_tilt	pelvis_list	pelvis_rotation	pelvis_tx	pelvis_ty	pelvis_tz	hip_flexion_r	hip_adduction_r	hip_rotation_r	knee_angle_r	ankle_angle_r	subtalar_angle_r	mtp_angle_r	hip_flexion_l	hip_adduction_l	hip_rotation_l	knee_angle_l	ankle_angle_l	subtalar_angle_l	mtp_angle_l	lumbar_extension	lumbar_bending	lumbar_rotation	arm_flex_r	arm_add_r	arm_rot_r	elbow_flex_r	pro_sup_r	wrist_flex_r	wrist_dev_r	arm_flex_l	arm_add_l	arm_rot_l	elbow_flex_l	pro_sup_l	wrist_flex_l	wrist_dev_l
100	2.21069	1.43558	1.06236	0.855075	-0.479165	0.911077	0.121584	-0.15834	-0.258125	0.397448	-0.23791	0	0	0.00428729	-0.0978436	-0.523383	0	-0.326665	0	0	0.0428382	-0.0576619	-0.276307	0.242017	-0.999871	0.30268	0	0	0	0	0.133956	-0.184974	0.213392	0.457537	1.5708	0	0
100.01	2.18299	1.43975	1.08732	0.854725	-0.475165	0.910686	0.109588	-0.155937	-0.258455	0.378128	-0.23052	0	0	0.00133755	-0.0967709	-0.52553	0	-0.32936	0	0	0.0408092	-0.0603511	-0.273187	0.234417	-1.00755	0.291957	0	0	0	0	0.140296	-0.182874	0.21524	0.451813	1.5708	0	0
100.02	2.14826	1.44412	1.11817	0.854518	-0.470835	0.909864	0.100921	-0.155504	-0.259808	0.365396	-0.223081	0	0	-0.00170946	-0.0953089	-0.52789	0	-0.331708	0	0	0.0388726	-0.058469	-0.272495	0.223586	-1.01908	0.281842	0	0	0	0	0.145303	-0.181274	0.218295	0.445927	1.5708	0	0
100.03	2.0837	1.44495	1.17891	0.85422	-0.466215	0.909379	0.0998601	-0.156142	-0.254709	0.356771	-0.213176	0	0	0.000268625	-0.0919009	-0.528412	0	-0.337099	0	0	0.0409096	-0.0687436	-0.2663	0.235721	-1.01707	0.279969	0	0	0	0	0.150232	-0.181638	0.221478	0.44281	1.5708	0	0
100.04	2.02762	1.44656	1.23072	0.85403	-0.46168	0.90859	0.0977005	-0.157703	-0.251122	0.349173	-0.206242	0	0	0.000487391	-0.0892244	-0.530489	0	-0.339737	0	0	0.0408631	-0.072154	-0.261041	0.235569	-1.02108	0.279632	0	0	0	0	0.155501	-0.180974	0.225927	0.439008	1.5708	0	0
100.05	1.9684	1.44933	1.28049	0.854482	-0.456521	0.908356	0.100045	-0.1597	-0.243335	0.347319	-0.200167	0	0	0.00628285	-0.0908073	-0.532747	0	-0.342164	0	0	0.0367528	-0.0781369	-0.269922	0.202504	-1.04016	0.252201	0	0	0	0	0.156317	-0.190513	0.233166	0.428649	1.5708	0	0
100.06	1.91574	1.45041	1.3296	0.854129	-0.451897	0.90783	0.095858	-0.161089	-0.236473	0.334651	-0.195136	0	0	0.00661317	-0.0887092	-0.533103	0	-0.345035	0	0	0.0356326	-0.0804501	-0.269173	0.206093	-1.04409	0.257972	0	0	0	0	0.164468	-0.192448	0.250776	0.418148	1.5708	0	0
100.07	1.87769	1.45289	1.36511	0.853915	-0.44745	0.907382	0.0943792	-0.163182	-0.24461	0.335685	-0.189871	0	0	0.00471585	-0.0883189	-0.534929	0	-0.347453	0	0	0.0333648	-0.0817535	-0.274388	0.223133	-1.04681	0.25964	0	0	0	0	0.160237	-0.201727	0.267982	0.428082	1.5708	0	0
100.08	1.84953	1.45334	1.3892	0.853541	-0.44296	0.907305	0.0988905	-0.163735	-0.24771	0.342764	-0.186335	0	0	0.00487792	-0.0891096	-0.535311	0	-0.34959	0	0	0.0349204	-0.0794521	-0.274057	0.23303	-1.05098	0.265858	0	0	0	0	0.135714	-0.21788	0.300528	0.46733	1.5708	0	0
100.09	1.82746	1.45775	1.40986	0.853964	-0.43831	0.907134	0.0939046	-0.163493	-0.254303	0.340011	-0.184193	0	0	0.00157975	-0.0908472	-0.534112	0	-0.350551	0	0	0.0263865	-0.0809542	-0.272085	0.230252	-1.05046	0.25892	0	0	0	0	0.127815	-0.216804	0.269404	0.48773	1.5708	0	0
100.1	1.83311	1.45674	1.40272	0.853886	-0.433823	0.907361	0.091404	-0.157678	-0.254005	0.331237	-0.183236	0	0	0.00359471	-0.0964805	-0.531186	0	-0.351371	0	0	0.0248138	-0.0768862	-0.273764	0.238574	-1.05108	0.259594	0	0	0	0	0.135813	-0.21374	0.269956	0.472785	1.5708	0	0
100.11	1.86349	1.45751	1.37114	0.853626	-0.429146	0.907896	0.0928226	-0.149783	-0.263952	0.33651	-0.181586	0	0	0.00339772	-0.104998	-0.527367	0	-0.35097	0	0	0.0197318	-0.0710167	-0.273222	0.243329	-1.05063	0.251544	0	0	0	0	0.14362	-0.208834	0.262728	0.460372	1.5708	0	0
100.12	1.89718	1.45689	1.34059	0.85309	-0.424971	0.908063	0.088784	-0.140172	-0.264969	0.331545	-0.179908	0	0	0.00532831	-0.114104	-0.523953	0	-0.348972	0	0	0.0198944	-0.0619069	-0.27145	0.227938	-1.05643	0.217336	0	0	0	0	0.154389	-0.197556	0.250175	0.441179	1.5708	0	0
100.13	1.90431	1.45628	1.33726	0.852486	-0.420456	0.907664	0.0840348	-0.133297	-0.260804	0.324504	-0.176579	0	0	0.00861043	-0.120428	-0.52013	0	-0.344839	0	0	0.0155713	-0.0585923	-0.274054	0.217251	-1.05789	0.188825	0	0	0	0	0.178506	-0.18654	0.217456	0.414568	1.5708	0	0
100.14	1.92188	1.4548	1.32102	0.851812	-0.416149	0.907984	0.0861002	-0.125291	-0.263018	0.328755	-0.174031	0	0	0.0120944	-0.127514	-0.516504	0	-0.338752	0	0	0.0188682	-0.0541041	-0.272957	0.21141	-1.05901	0.167237	0	0	0	0	0.150696	-0.200354	0.251115	0.458071	1.5708	0	0
100.15	1.92776	1.45227	1.31634	0.851683	-0.411998	0.908106	0.0857534	-0.117135	-0.255722	0.323646	-0.172261	0	0	0.0172225	-0.133623	-0.512243	0	-0.329495	0	0	0.020966	-0.0510556	-0.274304	0.208107	-1.05889	0.150583	0	0	0	0	0.151326	-0.198479	0.24676	0.457097	1.5708	0	0
100.16	1.93266	1.45019	1.31258	0.851342	-0.407876	0.908164	0.0856152	-0.109398	-0.247863	0.319143	-0.170935	0	0	0.0239108	-0.140649	-0.511408	0.00502869	-0.317617	0	0	0.0223535	-0.048128	-0.276129	0.206596	-1.05823	0.138776	0	0	0	0	0.15198	-0.197345	0.244326	0.45663	1.5708	0	0
100.17	1.93783	1.44931	1.30921	0.850645	-0.403915	0.90824	0.0844621	-0.1023	-0.24076	0.315076	-0.170158	0	0	0.0330843	-0.149546	-0.510055	0.0225963	-0.305532	0	0	0.0227515	-0.0450633	-0.278488	0.205734	-1.05815	0.127574	0	0	0	0	0.15322	-0.196468	0.244566	0.455582	1.5708	0	0
100.18	1.94361	1.44779	1.30381	0.849882	-0.399841	0.908381	0.084044	-0.0949543	-0.234677	0.308955	-0.169803	0	0	0.0430017	-0.15851	-0.505008	0.0405229	-0.294092	0	0	0.0231761	-0.0431223	-0.281753	0.213232	-1.05606	0.120128	0	0	0	0	0.157015	-0.195812	0.248987	0.449033	1.5708	0	0
100.19	1.94974	1.4487	1.30061	0.849779	-0.396215	0.908298	0.0782827	-0.0888466	-0.228621	0.300388	-0.168709	0	0	0.0514604	-0.167716	-0.497257	0.0593734	-0.283015	0	0	0.0215676	-0.0414436	-0.281452	0.202504	-1.05641	0.0930751	0	0	0	0	0.154711	-0.19497	0.244216	0.459609	1.5708	0	0
100.2	1.962	1.44854	1.29015	0.848823	-0.392449	0.908329	0.0786384	-0.0825365	-0.232509	0.302577	-0.16811	0	0	0.0610189	-0.177852	-0.487307	0.0777842	-0.273378	0	0	0.0212006	-0.0392965	-0.281861	0.199368	-1.05597	0.0666306	0	0.00431738	0	0	0.157727	-0.194508	0.252846	0.458734	1.5708	0	0
100.21	1.97165	1.44668	1.28223	0.848532	-0.388977	0.908389	0.0764697	-0.0747794	-0.228648	0.295142	-0.168453	0	0	0.0726631	-0.188498	-0.475422	0.0960831	-0.264708	0	0	0.0236531	-0.0371838	-0.283092	0.197879	-1.05549	0.0403002	0	0.032715	0	0	0.162918	-0.194084	0.268676	0.451161	1.5708	0	0
100.22	1.97955	1.44271	1.27303	0.847654	-0.385535	0.908863	0.0768344	-0.0666151	-0.223559	0.286823	-0.168498	0	0	0.0857809	-0.198588	-0.464229	0.113624	-0.256529	0	0	0.0273606	-0.0324584	-0.290107	0.218887	-1.05436	0.0323503	0	0.060362	0	0	0.179437	-0.190793	0.295775	0.416217	1.5708	0	0
100.23	1.99197	1.45191	1.26389	0.846714	-0.381396	0.908638	0.0631024	-0.0620371	-0.223184	0.280378	-0.165398	0	0	0.0908349	-0.207664	-0.456385	0.140201	-0.244243	0	0	0.0127529	-0.0372205	-0.281741	0.187867	-1.05124	-0.0278898	0	0.0976057	0	0	0.152592	-0.19259	0.239746	0.486491	1.5708	0	0
100.24	1.98991	1.453	1.2663	0.845854	-0.37777	0.908661	0.0587015	-0.056811	-0.218714	0.274348	-0.164245	0	0	0.102668	-0.214688	-0.44986	0.163817	-0.235342	0	0	0.0106782	-0.0386238	-0.276637	0.172248	-1.04944	-0.0661026	0	0.128138	0	0	0.154501	-0.192877	0.249092	0.493031	1.5708	0	0
100.25	1.97885	1.4539	1.27616	0.8451	-0.374237	0.908766	0.0552686	-0.0530686	-0.214295	0.268918	-0.162867	0	0	0.115367	-0.219888	-0.445245	0.189031	-0.226328	0	0	0.00943196	-0.0409722	-0.270879	0.159703	-1.04751	-0.100144	0	0.161244	0	0	0.158204	-0.193377	0.263068	0.495731	1.5708	0	0
100.26	1.95981	1.45326	1.29215	0.843721	-0.370842	0.909183	0.054042	-0.050385	-0.210704	0.263689	-0.161232	0	0	0.129173	-0.223487	-0.442698	0.214489	-0.217264	0	0	0.00915431	-0.0436909	-0.266181	0.155901	-1.04541	-0.126698	0	0.194596	0	0	0.167469	-0.192732	0.282498	0.485947	1.5708	0	0
100.27	1.93974	1.45925	1.31172	0.843137	-0.367245	0.90923	0.0459433	-0.0497562	-0.211522	0.261259	-0.157879	0	0	0.138316	-0.226887	-0.441561	0.244331	-0.207856	0	0	0.000462529	-0.0504695	-0.253517	0.123841	-1.04163	-0.178647	0	0.228827	0	0	0.159234	-0.192133	0.265591	0.518497	1.5708	0	0
100.28	1.91127	1.46055	1.3428	0.841764	-0.363865	0.908896	0.0416299	-0.0486639	-0.211752	0.259412	-0.154896	0	0	0.153257	-0.23023	-0.439591	0.273305	-0.200304	0	0	-0.000258427	-0.0570076	-0.228695	0.139681	-1.033	-0.19232	0	0.259179	0	0	0.164542	-0.184183	0.273341	0.529125	1.5708	0	0
100.29	1.87583	1.46007	1.37399	0.840694	-0.360447	0.908881	0.0413427	-0.0491066	-0.209658	0.257664	-0.150851	0	0	0.168145	-0.231818	-0.437386	0.301385	-0.19415	0	0	-0.00102453	-0.063042	-0.217652	0.118339	-1.02951	-0.241302	0	0.28559	0	0	0.16561	-0.183444	0.276672	0.537788	1.5708	0	0
100.3	1.84495	1.46043	1.39951	0.839554	-0.357091	0.909044	0.0463139	-0.0505331	-0.218361	0.269842	-0.145661	0	0	0.181146	-0.233155	-0.435692	0.328072	-0.189299	0	0	-0.00298802	-0.0685017	-0.205891	0.0984113	-1.02592	-0.29167	0	0.309659	0	0	0.166638	-0.18184	0.277065	0.545767	1.5708	0	0
100.31	1.80639	1.45986	1.4319	0.838395	-0.353805	0.909134	0.0496825	-0.05243	-0.221296	0.27596	-0.139953	0	0	0.194542	-0.232949	-0.43334	0.353386	-0.18513	0	0	-0.00382598	-0.0745628	-0.194313	0.0786025	-1.02208	-0.343014	0	0.332944	0	0	0.166891	-0.179525	0.273923	0.553142	1.5708	0	0
